<?xml version="1.0" encoding="iso-8859-1"?>
<!-- Generator: Adobe Illustrator 16.0.0, SVG Export Plug-In . SVG Version: 6.00 Build 0)  -->
<!DOCTYPE svg PUBLIC "-//W3C//DTD SVG 1.1//EN" "http://www.w3.org/Graphics/SVG/1.1/DTD/svg11.dtd">
<svg version="1.1" id="Capa_1" xmlns="http://www.w3.org/2000/svg" xmlns:xlink="http://www.w3.org/1999/xlink" x="0px" y="0px"
	 width="358.176px" height="358.176px" viewBox="0 0 358.176 358.176" style="enable-background:new 0 0 358.176 358.176;"
	 xml:space="preserve">
<g>
	<g>
		<path d="M334.143,25.061l-1.025-1.026C307.013-2.07,267.701-6.907,236.696,9.513c-9.108-9.089-23.912-9.084-33.013,0.018
			l-34.176,34.176c-8.23,8.23-9.021,21.125-2.374,30.253L73.96,167.132c-9.129-6.646-22.023-5.855-30.254,2.374L9.53,203.682
			c-9.101,9.102-9.106,23.905-0.018,33.014c-16.42,31.005-11.583,70.316,14.521,96.421l1.025,1.025
			c26.104,26.104,65.416,30.941,96.422,14.521c9.108,9.089,23.912,9.084,33.014-0.018l34.173-34.176
			c8.231-8.229,9.021-21.125,2.375-30.253l93.174-93.174c9.127,6.647,22.023,5.857,30.252-2.374l34.177-34.176
			c9.102-9.101,9.106-23.904,0.018-33.012C365.083,90.478,360.247,51.164,334.143,25.061z M177.712,303.512l-34.176,34.176
			c-3.069,3.069-8.045,3.069-11.115,0l-25.008-25.008c-3.068-3.068-3.068-8.046,0.001-11.114l9.253-9.252l-50.805-50.805
			l-9.252,9.252c-3.069,3.069-8.046,3.07-11.115,0.001l-25.008-25.008c-3.068-3.068-3.068-8.045,0-11.113l34.177-34.178
			c3.069-3.068,8.045-3.068,11.114,0l25.008,25.008c3.068,3.069,3.068,8.046,0,11.114l-9.34,9.339l8.386,8.387
			c9.521-7.315,23.217-6.621,31.937,2.097c8.717,8.718,9.412,22.415,2.096,31.935l8.387,8.387l9.34-9.34
			c3.068-3.069,8.045-3.068,11.113,0l25.008,25.008C180.781,295.467,180.782,300.442,177.712,303.512z M337.688,143.535
			l-34.176,34.177c-3.068,3.069-8.045,3.069-11.114,0l-25.009-25.008c-3.067-3.069-3.067-8.045,0-11.114l9.34-9.339l-8.387-8.386
			c-9.52,7.315-23.215,6.621-31.934-2.097c-8.719-8.72-9.414-22.415-2.099-31.936l-8.387-8.386l-9.34,9.339
			c-3.067,3.07-8.044,3.069-11.113,0l-25.008-25.007c-3.067-3.069-3.068-8.045,0-11.115l34.178-34.176
			c3.068-3.069,8.045-3.069,11.113,0l25.008,25.007c3.068,3.069,3.068,8.046,0,11.115l-9.253,9.252l50.804,50.804l9.254-9.252
			c3.068-3.069,8.046-3.069,11.113,0l25.008,25.007C340.758,135.49,340.758,140.466,337.688,143.535z"/>
		<path d="M259.353,91.337c-1.069-1.07-2.627-1.487-4.088-1.097l-10.229,2.741c-1.46,0.393-2.601,1.532-2.994,2.992l-2.74,10.229
			c-0.391,1.461,0.027,3.019,1.099,4.088l7.487,7.488c1.068,1.068,2.625,1.485,4.086,1.095l10.229-2.74
			c1.46-0.393,2.602-1.532,2.992-2.993l2.741-10.228c0.391-1.461-0.026-3.019-1.096-4.087L259.353,91.337z M257.65,108.59
			l-5.508,1.476l-4.03-4.032l1.476-5.508l5.508-1.477l4.031,4.032L257.65,108.59z"/>
		<path d="M110.291,240.399c-1.068-1.07-2.627-1.487-4.088-1.097l-10.228,2.741c-1.46,0.394-2.601,1.533-2.993,2.992l-2.74,10.229
			c-0.391,1.462,0.027,3.02,1.096,4.089l7.488,7.487c1.068,1.069,2.625,1.486,4.088,1.097l10.228-2.741
			c1.46-0.394,2.601-1.533,2.993-2.993l2.74-10.228c0.391-1.462-0.025-3.02-1.096-4.088L110.291,240.399z M108.59,257.651
			l-5.507,1.476l-4.033-4.032l1.477-5.508l5.508-1.476l4.032,4.032L108.59,257.651z"/>
	</g>
</g>
<g>
</g>
<g>
</g>
<g>
</g>
<g>
</g>
<g>
</g>
<g>
</g>
<g>
</g>
<g>
</g>
<g>
</g>
<g>
</g>
<g>
</g>
<g>
</g>
<g>
</g>
<g>
</g>
<g>
</g>
</svg>
